{
  "accessors": [
    {
      "bufferView": 2,
      "componentType": 5126,
      "count": 65532,
      "max": [
        0.3121519684791565,
        0.8764989972114563,
        0.5643768906593323
      ],
      "min": [
        -0.3121519684791565,
        -0.9947290420532227,
        -0.5673468708992004
      ],
      "type": "VEC3"
    },
    {
      "bufferView": 2,
      "byteOffset": 786384,
      "componentType": 5126,
      "count": 65532,
      "max": [
        0.9999995231628418,
        0.9999573826789856,
        0.9999792575836182
      ],
      "min": [
        -0.999821126461029,
        -0.9999961256980896,
        -0.9999997615814209
      ],
      "type": "VEC3"
    },
    {
      "bufferView": 1,
      "componentType": 5126,
      "count": 65532,
      "max": [
        0.9982104897499084,
        0.998104453086853
      ],
      "min": [
        -4.8080902814717774e-08,
        0.0017018914222717285
      ],
      "type": "VEC2"
    },
    {
      "bufferView": 1,
      "byteOffset": 524256,
      "componentType": 5126,
      "count": 65532,
      "max": [
        0.9982104897499084,
        0.998104453086853
      ],
      "min": [
        -4.8080902814717774e-08,
        0.0017018914222717285
      ],
      "type": "VEC2"
    },
    {
      "bufferView": 1,
      "byteOffset": 1048512,
      "componentType": 5126,
      "count": 65532,
      "max": [
        0.9982104897499084,
        0.998104453086853
      ],
      "min": [
        -4.8080902814717774e-08,
        0.0017018914222717285
      ],
      "type": "VEC2"
    },
    {
      "bufferView": 1,
      "byteOffset": 1572768,
      "componentType": 5126,
      "count": 65532,
      "max": [
        0.9982104897499084,
        0.998104453086853
      ],
      "min": [
        -4.8080902814717774e-08,
        0.0017018914222717285
      ],
      "type": "VEC2"
    },
    {
      "bufferView": 0,
      "componentType": 5125,
      "count": 324186,
      "type": "SCALAR"
    },
    {
      "bufferView": 2,
      "byteOffset": 1572768,
      "componentType": 5126,
      "count": 65532,
      "max": [
        0.2914559841156006,
        0.7283660173416138,
        0.5673468708992004
      ],
      "min": [
        -0.3121519684791565,
        -1.0,
        -0.5355909466743469
      ],
      "type": "VEC3"
    },
    {
      "bufferView": 2,
      "byteOffset": 2359152,
      "componentType": 5126,
      "count": 65532,
      "max": [
        0.9999734163284302,
        0.9999665021896362,
        0.9999969005584717
      ],
      "min": [
        -0.9999978542327881,
        -0.9999932646751404,
        -0.9998137950897217
      ],
      "type": "VEC3"
    },
    {
      "bufferView": 1,
      "byteOffset": 2097024,
      "componentType": 5126,
      "count": 65532,
      "max": [
        0.9990206360816956,
        1.0
      ],
      "min": [
        0.0013908683322370052,
        0.00032138824462890625
      ],
      "type": "VEC2"
    },
    {
      "bufferView": 1,
      "byteOffset": 2621280,
      "componentType": 5126,
      "count": 65532,
      "max": [
        0.9990206360816956,
        1.0
      ],
      "min": [
        0.0013908683322370052,
        0.00032138824462890625
      ],
      "type": "VEC2"
    },
    {
      "bufferView": 1,
      "byteOffset": 3145536,
      "componentType": 5126,
      "count": 65532,
      "max": [
        0.9990206360816956,
        1.0
      ],
      "min": [
        0.0013908683322370052,
        0.00032138824462890625
      ],
      "type": "VEC2"
    },
    {
      "bufferView": 1,
      "byteOffset": 3669792,
      "componentType": 5126,
      "count": 65532,
      "max": [
        0.9990206360816956,
        1.0
      ],
      "min": [
        0.0013908683322370052,
        0.00032138824462890625
      ],
      "type": "VEC2"
    },
    {
      "bufferView": 0,
      "byteOffset": 1296744,
      "componentType": 5125,
      "count": 268800,
      "type": "SCALAR"
    },
    {
      "bufferView": 2,
      "byteOffset": 3145536,
      "componentType": 5126,
      "count": 65533,
      "max": [
        0.30179697275161743,
        1.0,
        -0.06533285230398178
      ],
      "min": [
        -0.28114497661590576,
        -0.36739394068717957,
        -0.5591649413108826
      ],
      "type": "VEC3"
    },
    {
      "bufferView": 2,
      "byteOffset": 3931932,
      "componentType": 5126,
      "count": 65533,
      "max": [
        0.9999805688858032,
        0.9999114871025085,
        0.9998340606689453
      ],
      "min": [
        -0.9999889135360718,
        -0.9999561309814453,
        -0.9991360306739807
      ],
      "type": "VEC3"
    },
    {
      "bufferView": 1,
      "byteOffset": 4194048,
      "componentType": 5126,
      "count": 65533,
      "max": [
        0.9989900588989258,
        1.0
      ],
      "min": [
        -1.4988692953465943e-08,
        0.0006407499313354492
      ],
      "type": "VEC2"
    },
    {
      "bufferView": 1,
      "byteOffset": 4718312,
      "componentType": 5126,
      "count": 65533,
      "max": [
        0.9989900588989258,
        1.0
      ],
      "min": [
        -1.4988692953465943e-08,
        0.0006407499313354492
      ],
      "type": "VEC2"
    },
    {
      "bufferView": 1,
      "byteOffset": 5242576,
      "componentType": 5126,
      "count": 65533,
      "max": [
        0.9989900588989258,
        1.0
      ],
      "min": [
        -1.4988692953465943e-08,
        0.0006407499313354492
      ],
      "type": "VEC2"
    },
    {
      "bufferView": 1,
      "byteOffset": 5766840,
      "componentType": 5126,
      "count": 65533,
      "max": [
        0.9989900588989258,
        1.0
      ],
      "min": [
        -1.4988692953465943e-08,
        0.0006407499313354492
      ],
      "type": "VEC2"
    },
    {
      "bufferView": 0,
      "byteOffset": 2371944,
      "componentType": 5125,
      "count": 276381,
      "type": "SCALAR"
    },
    {
      "bufferView": 2,
      "byteOffset": 4718328,
      "componentType": 5126,
      "count": 65532,
      "max": [
        0.30890998244285583,
        0.9996170401573181,
        -0.13886293768882751
      ],
      "min": [
        -0.28572598099708557,
        -0.3581969738006592,
        -0.5669638514518738
      ],
      "type": "VEC3"
    },
    {
      "bufferView": 2,
      "byteOffset": 5504712,
      "componentType": 5126,
      "count": 65532,
      "max": [
        0.9999995231628418,
        0.9998114109039307,
        0.9999272227287292
      ],
      "min": [
        -0.9998594522476196,
        -0.9999883770942688,
        -0.9999954700469971
      ],
      "type": "VEC3"
    },
    {
      "bufferView": 1,
      "byteOffset": 6291104,
      "componentType": 5126,
      "count": 65532,
      "max": [
        0.9990221858024597,
        1.0
      ],
      "min": [
        -1.8338986995658502e-09,
        0.0001036524772644043
      ],
      "type": "VEC2"
    },
    {
      "bufferView": 1,
      "byteOffset": 6815360,
      "componentType": 5126,
      "count": 65532,
      "max": [
        0.9990221858024597,
        1.0
      ],
      "min": [
        -1.8338986995658502e-09,
        0.0001036524772644043
      ],
      "type": "VEC2"
    },
    {
      "bufferView": 1,
      "byteOffset": 7339616,
      "componentType": 5126,
      "count": 65532,
      "max": [
        0.9990221858024597,
        1.0
      ],
      "min": [
        -1.8338986995658502e-09,
        0.0001036524772644043
      ],
      "type": "VEC2"
    },
    {
      "bufferView": 1,
      "byteOffset": 7863872,
      "componentType": 5126,
      "count": 65532,
      "max": [
        0.9990221858024597,
        1.0
      ],
      "min": [
        -1.8338986995658502e-09,
        0.0001036524772644043
      ],
      "type": "VEC2"
    },
    {
      "bufferView": 0,
      "byteOffset": 3477468,
      "componentType": 5125,
      "count": 207273,
      "type": "SCALAR"
    },
    {
      "bufferView": 2,
      "byteOffset": 6291096,
      "componentType": 5126,
      "count": 14288,
      "max": [
        0.270145982503891,
        0.9646649956703186,
        -0.12393798679113388
      ],
      "min": [
        -0.28252196311950684,
        -0.33989596366882324,
        -0.21501000225543976
      ],
      "type": "VEC3"
    },
    {
      "bufferView": 2,
      "byteOffset": 6462552,
      "componentType": 5126,
      "count": 14288,
      "max": [
        0.9957895278930664,
        0.9999879598617554,
        0.9997380971908569
      ],
      "min": [
        -0.9988218545913696,
        -0.9987914562225342,
        -0.9664806723594666
      ],
      "type": "VEC3"
    },
    {
      "bufferView": 1,
      "byteOffset": 8388128,
      "componentType": 5126,
      "count": 14288,
      "max": [
        0.9990138411521912,
        1.0
      ],
      "min": [
        -1.5184395962819508e-08,
        0.0
      ],
      "type": "VEC2"
    },
    {
      "bufferView": 1,
      "byteOffset": 8502432,
      "componentType": 5126,
      "count": 14288,
      "max": [
        0.9990138411521912,
        1.0
      ],
      "min": [
        -1.5184395962819508e-08,
        0.0
      ],
      "type": "VEC2"
    },
    {
      "bufferView": 1,
      "byteOffset": 8616736,
      "componentType": 5126,
      "count": 14288,
      "max": [
        0.9990138411521912,
        1.0
      ],
      "min": [
        -1.5184395962819508e-08,
        0.0
      ],
      "type": "VEC2"
    },
    {
      "bufferView": 1,
      "byteOffset": 8731040,
      "componentType": 5126,
      "count": 14288,
      "max": [
        0.9990138411521912,
        1.0
      ],
      "min": [
        -1.5184395962819508e-08,
        0.0
      ],
      "type": "VEC2"
    },
    {
      "bufferView": 0,
      "byteOffset": 4306560,
      "componentType": 5125,
      "count": 32853,
      "type": "SCALAR"
    }
  ],
  "asset": {
    "extras": {
      "author": "golden4445etetet (https://sketchfab.com/golden4445etetet)",
      "license": "CC-BY-4.0 (http://creativecommons.org/licenses/by/4.0/)",
      "source": "https://sketchfab.com/3d-models/sit-the-beauty-girl-7e8fe905922244d486446863817166cd",
      "title": "sit the beauty girl"
    },
    "generator": "Sketchfab-17.1.0",
    "version": "2.0"
  },
  "bufferViews": [
    {
      "buffer": 0,
      "byteLength": 4437972,
      "name": "floatBufferViews",
      "target": 34963
    },
    {
      "buffer": 0,
      "byteLength": 8845344,
      "byteOffset": 4437972,
      "byteStride": 8,
      "name": "floatBufferViews",
      "target": 34962
    },
    {
      "buffer": 0,
      "byteLength": 6634008,
      "byteOffset": 13283316,
      "byteStride": 12,
      "name": "floatBufferViews",
      "target": 34962
    }
  ],
  "buffers": [
    {
      "byteLength": 19917324,
      "uri": "scene.bin"
    }
  ],
  "extensionsUsed": [
    "KHR_materials_unlit"
  ],
  "images": [
    {
      "uri": "textures/material_0_baseColor.jpeg"
    }
  ],
  "materials": [
    {
      "doubleSided": true,
      "extensions": {
        "KHR_materials_unlit": {}
      },
      "name": "material_0",
      "pbrMetallicRoughness": {
        "baseColorTexture": {
          "index": 0
        },
        "metallicFactor": 0.0
      }
    }
  ],
  "meshes": [
    {
      "name": "Object_0",
      "primitives": [
        {
          "attributes": {
            "NORMAL": 1,
            "POSITION": 0,
            "TEXCOORD_0": 2,
            "TEXCOORD_1": 3,
            "TEXCOORD_2": 4,
            "TEXCOORD_3": 5
          },
          "indices": 6,
          "material": 0,
          "mode": 4
        }
      ]
    },
    {
      "name": "Object_1",
      "primitives": [
        {
          "attributes": {
            "NORMAL": 8,
            "POSITION": 7,
            "TEXCOORD_0": 9,
            "TEXCOORD_1": 10,
            "TEXCOORD_2": 11,
            "TEXCOORD_3": 12
          },
          "indices": 13,
          "material": 0,
          "mode": 4
        }
      ]
    },
    {
      "name": "Object_2",
      "primitives": [
        {
          "attributes": {
            "NORMAL": 15,
            "POSITION": 14,
            "TEXCOORD_0": 16,
            "TEXCOORD_1": 17,
            "TEXCOORD_2": 18,
            "TEXCOORD_3": 19
          },
          "indices": 20,
          "material": 0,
          "mode": 4
        }
      ]
    },
    {
      "name": "Object_3",
      "primitives": [
        {
          "attributes": {
            "NORMAL": 22,
            "POSITION": 21,
            "TEXCOORD_0": 23,
            "TEXCOORD_1": 24,
            "TEXCOORD_2": 25,
            "TEXCOORD_3": 26
          },
          "indices": 27,
          "material": 0,
          "mode": 4
        }
      ]
    },
    {
      "name": "Object_4",
      "primitives": [
        {
          "attributes": {
            "NORMAL": 29,
            "POSITION": 28,
            "TEXCOORD_0": 30,
            "TEXCOORD_1": 31,
            "TEXCOORD_2": 32,
            "TEXCOORD_3": 33
          },
          "indices": 34,
          "material": 0,
          "mode": 4
        }
      ]
    }
  ],
  "nodes": [
    {
      "children": [
        1
      ],
      "matrix": [
        1.0,
        0.0,
        0.0,
        0.0,
        0.0,
        2.220446049250313e-16,
        -1.0,
        0.0,
        0.0,
        1.0,
        2.220446049250313e-16,
        0.0,
        0.0,
        0.0,
        0.0,
        1.0
      ],
      "name": "Sketchfab_model"
    },
    {
      "children": [
        2
      ],
      "name": "root"
    },
    {
      "children": [
        3
      ],
      "matrix": [
        1.0,
        0.0,
        0.0,
        0.0,
        0.0,
        2.220446049250313e-16,
        1.0,
        0.0,
        0.0,
        -1.0,
        2.220446049250313e-16,
        0.0,
        0.0,
        0.0,
        0.0,
        1.0
      ],
      "name": "GLTF_SceneRootNode"
    },
    {
      "children": [
        4,
        5,
        6,
        7,
        8
      ],
      "name": "_0"
    },
    {
      "mesh": 0,
      "name": "Object_4"
    },
    {
      "mesh": 1,
      "name": "Object_5"
    },
    {
      "mesh": 2,
      "name": "Object_6"
    },
    {
      "mesh": 3,
      "name": "Object_7"
    },
    {
      "mesh": 4,
      "name": "Object_8"
    }
  ],
  "samplers": [
    {
      "magFilter": 9729,
      "minFilter": 9987,
      "wrapS": 10497,
      "wrapT": 10497
    }
  ],
  "scene": 0,
  "scenes": [
    {
      "name": "Sketchfab_Scene",
      "nodes": [
        0
      ]
    }
  ],
  "textures": [
    {
      "sampler": 0,
      "source": 0
    }
  ]
}
